<svg xmlns="http://www.w3.org/2000/svg" xmlns:xlink="http://www.w3.org/1999/xlink" width="311px" height="311px" viewBox="0 0 311 311"><title>emblems-zodiac-aries</title><g id="emblems-zodiac-aries" stroke="none" stroke-width="1" fill="none" fill-rule="evenodd"><path d="M262.857561,75 C265.500366,75 268.476335,75.6641809 272.443694,77.6262071 C276.071585,79.6115694 277.723001,81.2567634 277.723001,82.9019574 C277.723001,83.2421257 276.071585,85.2122298 272.770555,89.152438 C271.11914,91.1378004 270.460015,93.1070069 270.460015,94.421008 C270.460015,97.3954613 271.785469,98.7085649 274.754235,98.7085649 L274.754235,98.7085649 L281.357195,97.7194739 L284,99.3655654 C282.348585,102.655953 280.039845,104.966226 277.723001,106.603342 C277.063875,107.26842 275.41246,108.264692 273.10372,109.577795 C269.142664,112.21208 266.82492,115.171275 266.166695,118.129573 C265.500366,120.764755 265.174405,123.07413 264.51618,125.051415 C263.849851,127.021519 263.515786,128.3427 263.515786,129.648623 C263.515786,130.969805 264.183015,132.955167 264.84124,135.256464 C265.83353,137.559556 266.166695,138.87266 266.166695,139.536841 C266.166695,141.174854 265.83353,143.484229 264.84124,146.126592 C264.183015,148.752799 263.190725,151.720072 261.865271,155.01046 C261.865271,155.992371 262.199336,157.652823 262.857561,159.622927 C263.849851,161.260941 264.183015,163.570316 264.183015,165.87251 C264.183015,168.182783 263.849851,170.48408 262.857561,172.794352 C261.54021,176.092818 261.21425,180.689129 261.21425,186.962946 C261.21425,192.21536 257.253194,197.824098 249.317576,203.741591 C245.023355,207.373045 243.04778,210.006432 243.04778,211.645344 C243.04778,214.936629 247.342,216.573745 255.595475,216.573745 L255.595475,216.573745 L271.445101,215.26872 C277.063875,215.26872 281.032135,220.197121 283.008611,229.760428 C283.008611,234.68883 276.40475,237 263.515786,237 L263.515786,237 L262.163188,236.999409 C259.105729,236.995121 257.580055,236.959747 257.580055,236.66791 C255.92864,236.66791 251.96038,236.342999 246.016546,235.678819 C240.420653,235.060465 236.583525,235.024091 234.497655,235.021952 L234.127075,235.021818 L234.127075,235.021818 L233.197106,235.023375 C231.180444,235.033498 229.141193,235.109418 226.857786,235.678819 C224.873206,236.342999 222.230401,236.66791 219.920761,236.66791 C217.277956,236.66791 214.30919,236.010909 211.000056,235.021818 C207.364961,233.708714 205.714447,233.051714 205.389386,233.051714 C204.722157,233.051714 200.762001,234.032727 193.166751,235.353908 C188.207102,236.342999 183.920986,236.66791 180.610952,236.66791 L180.610952,236.66791 L169.714672,236.342999 L161.452192,236.66791 C158.143058,236.66791 155.507457,236.342999 153.531881,235.353908 C153.531881,233.376624 154.182903,230.742339 154.849232,226.79495 C155.182396,225.148859 155.507457,223.827678 155.507457,222.506496 C155.507457,214.936629 152.206427,209.018239 145.928527,205.06367 C139.650627,200.783294 130.730823,198.805112 119.167314,198.805112 C112.896618,198.805112 99.6825933,200.783294 80.1987731,204.737862 L80.1987731,204.737862 L58.0559401,210.006432 L53.4366594,212.633537 L53.1034949,216.249733 C53.1034949,217.570017 53.4366594,218.559108 54.4280488,219.215211 C55.0871743,220.197121 56.4126287,220.86938 58.0559401,221.518303 C59.3804941,221.850393 61.365074,222.174406 63.6747144,222.174406 L63.6747144,222.174406 L74.9122629,221.193393 L103.316788,214.936629 C109.262423,213.630706 113.888908,212.965627 117.190838,212.965627 C130.070797,212.965627 136.674658,216.249733 136.674658,222.174406 C136.674658,226.461963 135.031347,230.085338 131.722213,232.395611 C128.087118,235.021818 123.467837,236.342999 117.524002,236.342999 L117.524002,236.342999 L40.554899,236.342999 C36.2543756,236.342999 33.2856098,234.68883 30.9759694,231.73861 C28.9913895,229.104325 28,225.473769 28,221.518303 C28,213.290538 33.6187743,206.059941 45.5082447,200.127191 C49.4684,197.492008 52.1193089,195.514724 53.4366594,193.861452 L53.4366594,193.861452 L55.4203388,190.254231 C58.7222691,185.633687 61.6982385,182.32804 64.0078789,180.365117 C66.6434802,178.719923 71.2771681,176.092818 77.8810288,172.469442 C84.483989,168.846964 91.0950532,165.87251 97.6980134,163.570316 C103.976814,160.943211 108.929259,159.622927 112.238393,159.622927 C114.222072,159.622927 120.158703,161.260941 129.738533,164.891497 C135.031347,166.529511 138.991502,167.525782 141.635207,167.525782 C144.611177,167.525782 148.238168,166.529511 151.547301,164.219238 C155.182396,161.925122 163.436772,155.01046 176.317632,143.152139 C186.222522,154.686448 197.126906,160.611121 209.349541,160.611121 C219.920761,160.611121 229.492487,156.988642 237.754066,149.733812 C246.016546,142.504114 249.975801,134.268271 249.975801,125.051415 C249.975801,112.861003 242.714615,104.309225 227.516011,99.3655654 C225.865496,94.421008 224.214081,90.8057099 222.555462,89.152438 L222.555462,89.152438 L217.944285,84.2159585 L217.277956,83.5598555 C222.230401,80.6006604 227.516011,78.2984659 233.793911,76.9701041 C239.737746,75.6641809 243.706005,75 246.016546,75 L246.016546,75 Z M203.100906,93.1454217 C207.063763,93.1454217 210.696156,95.1101406 214.32855,98.7371067 C205.744611,103.015688 201.446789,108.285156 201.446789,115.210588 C201.446789,119.159771 203.100906,123.108955 205.744611,126.735921 C208.384715,130.344039 212.023412,131.987438 216.972255,131.987438 C219.612359,131.987438 222.258765,131.007322 224.898869,129.023755 C227.213011,126.735921 228.531262,124.751456 228.531262,122.117171 C228.531262,118.167988 225.891159,115.867588 220.60735,114.546407 C223.251055,111.583622 225.891159,110.257055 228.531262,110.257055 C231.510833,110.257055 233.818673,111.905839 235.799651,114.882087 C237.777027,117.83859 238.77562,121.453888 238.77562,125.403072 C238.77562,130.685105 236.131915,135.292186 231.181271,138.911972 C225.891159,142.197872 220.280488,143.853837 214.001688,143.853837 C205.412347,143.853837 198.474422,140.877589 193.85334,134.628006 C188.895492,128.701537 186.254488,122.117171 186.254488,114.546407 C186.254488,109.270656 187.903202,104.335074 190.880072,99.7235051 C193.85334,95.4395384 197.814396,93.1454217 203.100906,93.1454217 Z M242.048286,84.2159585 C240.07091,84.2159585 238.746356,84.8729591 237.754066,86.5253334 C236.436716,87.8384369 235.770387,89.4845285 235.770387,91.1378004 C235.770387,93.4390974 236.762677,95.4181769 238.087231,97.0633709 C239.737746,98.7085649 241.389161,99.3655654 243.04778,99.3655654 C247.007935,99.3655654 248.984411,97.3954613 248.984411,93.4390974 C248.984411,91.1378004 248.325286,89.152438 247.007935,87.1904118 C245.690585,85.2122298 244.04007,84.2159585 242.048286,84.2159585 Z" id="Combined-Shape-Copy" fill="#FFFFFF"></path></g></svg>