<svg xmlns="http://www.w3.org/2000/svg" xmlns:xlink="http://www.w3.org/1999/xlink" width="311px" height="311px" viewBox="0 0 311 311"><title>emblems-zodiac-gemini copy</title><g id="emblems-zodiac-gemini-copy" stroke="none" stroke-width="1" fill="none" fill-rule="evenodd"><path d="M125.479489,211.302618 C121.836489,219.075618 118.231489,226.770618 114.621489,234.475618 C119.963489,238.598618 121.073489,244.053618 120.225489,249.597618 C118.909489,258.205618 120.573489,265.104618 129.657489,269.426618 C123.105489,269.887618 118.860489,267.305618 116.269489,261.920618 C114.258489,257.740618 111.798489,253.700618 110.414489,249.322618 C109.280489,245.735618 109.466489,241.737618 109.009489,237.928618 C108.824489,236.379618 108.375489,234.860618 108.236489,233.309618 C107.563489,225.865618 117.941489,212.733618 125.479489,211.302618 Z M184.852089,210.774918 C185.588089,210.942918 186.969089,210.876918 187.824089,211.515918 C194.311089,216.358918 200.707089,221.807918 201.509089,230.270918 C201.545962,230.661191 201.584602,231.052891 201.623904,231.445793 L201.703067,232.233128 C201.729531,232.496062 201.755962,232.759462 201.782034,233.02326 L201.858842,233.815784 C202.434414,239.89993 202.646562,246.159245 198.514089,251.772918 C196.596089,254.379918 195.605089,257.684918 194.275089,260.707918 C191.701089,266.560918 187.903089,269.087918 181.048089,268.928918 C182.612089,267.772918 183.764089,266.955918 184.880089,266.091918 C188.979089,262.915918 190.891089,259.004918 190.342089,253.566918 L190.308244,253.233399 L190.308244,253.233399 L190.240428,252.565136 C190.217927,252.342142 190.195617,252.118929 190.17376,251.895562 L190.109816,251.225063 C189.540956,245.075769 189.514057,238.858708 195.493089,233.914918 C191.995089,226.307918 188.488089,218.680918 184.852089,210.774918 Z M121.779889,204.834318 C115.598889,210.623318 109.302889,216.521318 102.888889,222.528318 C105.955889,229.987318 104.152889,236.730318 100.296889,242.729318 C95.9828888,249.441318 96.7858888,255.531318 100.717889,261.805318 C101.031889,262.307318 101.275889,262.853318 102.045889,264.313318 C96.1998888,261.537318 93.4878888,257.726318 93.1358888,252.407318 C92.7298888,246.275318 92.1828888,240.097318 92.5438888,233.990318 C92.7468888,230.556318 94.6678888,227.226318 95.8018888,223.846318 C96.1888888,222.695318 96.7148888,221.556318 96.8748888,220.371318 C97.9808888,212.179318 114.200889,202.210318 121.779889,204.834318 Z M190.523589,203.398418 C198.675589,205.096418 206.948589,207.700418 211.034589,215.292418 C211.167171,215.538891 211.300953,215.785597 211.435592,216.032616 L211.84173,216.774683 C212.249748,217.517839 212.662367,218.264496 213.070282,219.016746 L213.476285,219.770937 C216.369792,225.190442 218.862371,230.932982 217.528589,237.768418 C216.712589,241.947418 217.355589,246.399418 217.211589,250.723418 C217.029589,256.213418 214.766589,260.449418 208.680589,263.519418 C209.456589,261.737418 209.736589,260.862418 210.191589,260.088418 C213.710589,254.108418 213.839589,248.442418 209.984589,242.299418 C206.302589,236.434418 204.146589,229.908418 207.053589,223.297418 C206.863278,223.050832 206.674104,222.803391 206.485817,222.555347 L205.923377,221.809659 C205.736621,221.560662 205.550506,221.311314 205.364786,221.061868 L204.530873,219.939549 C199.996097,213.834798 195.475658,207.898108 187.336589,205.838418 C187.501589,205.397418 187.666589,204.956418 187.831589,204.516418 C188.734589,204.119418 189.738589,203.235418 190.523589,203.398418 Z M170.028589,188.872118 C177.566589,193.062118 185.557589,193.137118 193.763589,189.847118 C188.944589,203.400118 172.338589,212.754118 153.280589,212.979118 C136.699589,213.175118 120.534589,203.252118 115.139589,189.199118 C123.815589,193.021118 131.865589,191.208118 139.837589,187.724118 C150.055589,183.261118 160.076589,183.340118 170.028589,188.872118 Z M33.5770888,165.658118 C34.6324888,167.098718 35.6812488,168.544998 36.7278168,169.993374 L39.8653928,174.341206 C43.0052888,178.688158 46.1654888,183.021718 49.4660888,187.245118 C55.4850888,194.948118 63.8580888,198.834118 73.2710888,200.706118 C73.9160888,200.835118 74.6660888,201.015118 75.2420888,200.815118 C79.9744174,199.172747 84.9052125,199.22344 89.8619753,199.455683 L90.9638355,199.509666 C98.4951762,199.890579 106.056932,200.431947 113.045089,195.841118 C107.667089,207.792118 97.2260888,209.948118 86.2890888,210.544118 C85.4744337,210.588428 84.6344515,210.662644 83.7831907,210.725357 L83.2711931,210.761273 C79.3372256,211.02097 75.2240543,210.862049 72.2990888,206.254118 C64.4430888,207.219118 56.7480888,204.765118 49.3020888,201.312118 C44.7650888,199.210118 41.5060888,196.144118 42.4450888,190.570118 C34.1510888,187.135118 31.7480888,180.182118 33.5770888,165.658118 Z M276.439989,165.705118 C279.534989,175.734118 275.858989,187.283118 268.052989,189.578118 C268.820989,196.620118 264.256989,200.092118 258.389989,201.820118 C252.253989,203.629118 245.859989,204.564118 239.574989,205.860118 C238.938989,205.991118 237.924989,205.723118 237.673989,206.069118 C234.170681,210.877579 229.559475,210.665206 224.993812,210.13045 L224.120393,210.025331 C224.023475,210.013485 223.926611,210.001628 223.829812,209.989807 L223.249887,209.919663 C222.091954,209.781664 220.946589,209.661749 219.832989,209.638118 C212.948989,209.494118 206.421989,207.079118 201.202989,202.270118 C200.028489,201.188189 199.090377,199.849623 198.167083,198.494319 L197.551318,197.590937 C197.242101,197.140638 196.92906,196.694404 196.603989,196.261118 L197.374989,195.490118 L197.374989,195.490118 C198.300401,195.747059 199.222823,196.035557 200.144548,196.3315 L201.5269,196.777984 C204.061304,197.595723 206.599106,198.378589 209.187989,198.625118 C214.375989,199.120118 219.662989,198.606118 224.906989,198.506118 C226.552989,198.474118 228.377989,197.870118 229.812989,198.385118 C242.209989,202.833118 251.270989,196.352118 258.959989,188.451118 C265.685989,181.542118 270.850989,173.113118 276.439989,165.705118 Z M47.0487888,134.050618 C47.0487888,137.832618 46.7617888,140.794618 47.1057888,143.680618 C47.9847888,151.065618 51.2397888,156.780618 58.5367888,159.857618 C65.1517888,162.644618 68.9427888,168.469618 72.6397888,174.258618 C73.7217888,175.954618 74.1957888,178.110618 77.2647888,177.533618 C78.5527888,177.291618 80.3027888,178.719618 81.6397888,179.672618 C88.8827888,184.832618 96.9497888,186.736618 105.730789,186.096618 C106.973789,186.005618 108.237789,186.198618 109.492789,186.261618 C109.713789,186.694618 109.933789,187.126618 110.153789,187.559618 C108.764789,188.560618 107.515789,189.989618 105.964789,190.493618 C95.1077888,194.025618 84.3537888,193.768618 73.8527888,189.022618 C69.2727888,186.952618 65.2427888,183.968618 60.5417888,181.895618 C53.5087888,178.792618 50.4927888,171.232618 48.0997888,163.978618 C47.6427888,162.593618 47.0247888,161.103618 46.0467888,160.076618 C39.5337888,153.240618 39.6127888,141.654618 47.0487888,134.050618 Z M263.256789,133.800618 C270.928789,140.968618 270.957789,152.984618 263.760789,159.918618 C263.060789,160.593618 262.356789,161.526618 262.178789,162.441618 C260.789789,169.565618 257.562789,176.210618 251.733789,179.946618 C246.324789,183.410618 240.590789,187.147618 234.449789,189.075618 C228.099789,191.070618 221.166789,191.539618 214.447789,191.896618 C210.926789,192.082618 207.272789,190.756618 203.769789,189.785618 C202.386789,189.402618 201.250789,188.126618 200.002789,187.257618 L200.357789,185.918618 C201.846789,185.844618 203.341789,185.649618 204.823789,185.715618 C212.831789,186.076618 220.296789,184.598618 227.122789,180.071618 C228.322789,179.275885 229.70398,178.762889 231.104949,178.271549 L232.156863,177.903025 C233.032344,177.592507 233.899789,177.264951 234.719789,176.856618 C235.769789,176.333618 236.662789,175.230618 237.300789,174.189618 C241.530789,167.286618 246.472789,161.444618 254.253789,157.964618 C260.317789,155.252618 262.554789,149.173618 263.208789,142.779618 C263.492789,139.996618 263.256789,137.161618 263.256789,133.800618 Z M186.383389,119.708118 C186.781389,120.155118 187.161389,120.388118 187.146389,120.595118 C186.365389,131.295118 190.608389,139.942118 197.885389,147.440118 C199.375389,148.975118 200.502389,150.880118 201.701389,152.677118 C207.946389,162.034118 208.117389,170.039118 202.301389,178.647118 C196.463389,187.291118 187.496389,190.892118 177.085389,188.570118 C174.345389,187.959118 171.448389,187.268118 169.097389,185.836118 C160.775389,180.763118 152.307389,181.816118 143.564389,184.287118 C137.992389,185.861118 132.334389,187.634118 126.616389,188.092118 C111.287389,189.317118 99.6443888,173.393118 105.301389,159.053118 C107.105389,154.480118 109.976389,150.271118 112.726389,146.140118 C120.675389,134.200118 120.750389,134.249118 122.525389,119.867118 C124.654389,122.509118 126.287389,124.534118 128.072389,126.750118 C145.572389,118.765118 163.086389,118.103118 180.558389,126.699118 C182.610389,124.235118 184.484389,121.987118 186.383389,119.708118 Z M67.8015888,118.874218 L67.8055888,118.984218 L67.8055888,118.984218 C69.9615888,119.142218 72.1175888,119.436218 74.2745888,119.433218 C80.4075888,119.424218 84.9165888,119.981218 87.5015888,127.664218 C89.4475888,133.447218 95.8755888,137.725218 100.323589,142.662218 C104.426589,147.216218 105.229589,156.142218 101.666589,161.083218 C99.0465888,164.715218 95.6575888,163.456218 92.9215888,161.330218 C89.2575888,158.482218 85.9205888,155.201218 82.5365888,152.007218 C75.8865888,145.729218 69.2665888,139.419218 62.7105888,133.042218 C61.0535888,131.428218 59.4705888,129.655218 58.2275888,127.715218 C55.1615888,122.936218 57.2035888,119.118218 62.8145888,118.884218 C64.4745888,118.815218 66.1395888,118.874218 67.8015888,118.874218 Z M247.260689,117.691318 C249.264689,118.900318 252.276689,119.693318 252.994689,121.433318 C253.737689,123.234318 253.002689,126.635318 251.616689,128.154318 C245.350689,135.021318 238.707689,141.556318 232.033689,148.040318 C227.624689,152.324318 223.066689,156.479318 218.330689,160.398318 C212.765689,165.004318 209.147689,163.481318 207.373689,156.522318 C205.753689,150.165318 206.570689,144.916318 211.800689,140.376318 C215.423689,137.232318 218.454689,133.401318 221.697689,129.830318 C222.578689,128.859318 223.886689,127.748318 223.946689,126.645318 C224.320689,119.701318 229.100689,119.162318 234.329689,119.138318 C238.483689,119.119318 242.636689,119.134318 246.788689,119.134318 C246.946689,118.653318 247.103689,118.172318 247.260689,117.691318 Z M139.396189,42.9192179 C139.715189,42.9572179 140.016189,43.1302179 140.781189,43.4032179 C120.707189,51.1962179 113.094189,60.6242179 115.419189,75.1342179 C128.854189,74.1622179 135.629189,64.4992179 143.409189,55.0252179 C142.850189,58.1942179 142.637189,61.4712179 141.677189,64.5132179 C136.731189,80.1932179 124.932189,88.2522179 109.956189,92.8372179 C107.573189,93.5662179 105.166189,95.0352179 103.396189,96.7932179 C97.9661888,102.186218 92.7311888,107.791218 87.6421888,113.510218 C85.2321888,116.219218 82.6541888,117.700218 78.9741888,117.175218 C73.8891888,116.450218 68.7851888,115.860218 62.5861888,115.071218 C68.1493364,107.738792 72.106507,99.6691422 75.9601487,91.6519391 L76.8482967,89.8031058 C81.7305253,79.6435966 86.632156,69.6664311 94.6251888,61.4862179 C106.898189,48.9262179 120.982189,40.6842179 139.396189,42.9192179 Z M187.849289,43.5891179 C204.265289,47.8981179 216.205289,58.5701179 224.723289,72.4351179 C232.941289,85.8101179 239.329289,100.309118 246.611289,114.490118 C245.147289,114.846118 243.556289,115.168118 242.005289,115.623118 C232.156289,118.511118 223.724289,117.264118 217.916289,107.716118 C216.984289,106.185118 215.424289,105.045118 214.203289,103.680118 C208.775289,97.6211179 203.070289,92.7091179 194.717289,90.0621179 C179.920289,85.3761179 170.489289,74.7251179 167.624289,58.9921179 C167.445289,58.0111179 167.305289,57.0191179 167.236289,56.0251179 C167.192289,55.4001179 167.313289,54.7631179 167.316289,54.7131179 C172.135289,59.7291179 176.871289,65.2271179 182.249289,70.0031179 C184.07568,71.6247701 186.553824,72.5733637 189.033203,73.4364235 L189.90727,73.738438 C190.488603,73.9386888 191.065767,74.138031 191.630289,74.3441179 C195.380289,75.7151179 196.291289,73.8331179 195.931289,70.3121179 C194.637289,57.6121179 187.313289,49.8181179 175.899289,45.2801179 C174.095289,44.5631179 172.203289,44.0721179 169.160289,43.0931179 C176.281289,41.1661179 182.096289,42.0781179 187.849289,43.5891179 Z" id="Combined-Shape-Copy-3" fill="#FFFFFF"></path></g></svg>