<svg xmlns="http://www.w3.org/2000/svg" xmlns:xlink="http://www.w3.org/1999/xlink" width="311px" height="311px" viewBox="0 0 311 311"><title>emblems-zodiac-leo</title><g id="emblems-zodiac-leo" stroke="none" stroke-width="1" fill="none" fill-rule="evenodd"><path d="M180.410073,42.7258786 C188.977073,42.8278786 197.546073,42.7598786 206.114073,42.7598786 C206.168073,43.3648786 206.220073,43.9698786 206.273073,44.5748786 L197.015073,46.7648786 L197.015073,46.7648786 C198.189028,47.0037877 199.365437,47.2245852 200.540284,47.4408396 L201.714461,47.6560822 C208.754618,48.9444819 215.690346,50.2321513 221.654073,54.4498786 C213.737073,56.1798786 205.965073,57.8788786 198.192073,59.5778786 C198.233073,60.2138786 198.273073,60.8498786 198.314073,61.4868786 C211.362073,60.6628786 223.935073,62.0838786 235.464073,68.2488786 C228.904073,71.3458786 222.494073,74.3748786 216.083073,77.4028786 C216.186073,77.9228786 216.290073,78.4408786 216.394073,78.9608786 C224.990073,79.7178786 232.876073,82.1298786 239.905073,88.5088786 C236.772073,89.3268786 234.191073,89.9998786 231.610073,90.6728786 L231.606073,91.4688786 L231.606073,91.4688786 C234.713073,91.8038786 237.819073,92.1388786 242.473073,92.6398786 C240.066073,99.0788786 237.932073,104.786879 235.719073,110.702879 C233.115073,109.590879 231.536073,108.915879 229.343073,107.978879 C231.527073,111.557345 233.40462,114.632567 235.27776,117.701881 L236.143073,119.119879 L236.143073,119.119879 C236.315073,118.259879 236.512073,117.276879 236.742073,116.130879 C243.019073,124.273879 247.102073,139.895879 245.419073,149.075879 C242.785073,146.676879 240.168073,144.294879 237.551073,141.910879 C243.874073,154.647879 244.765073,167.678879 242.389073,181.666879 C240.029073,177.653879 237.965073,174.142879 235.900073,170.632879 C235.614073,170.769879 235.329073,170.907879 235.043073,171.045879 C235.916073,174.380879 237.050073,177.672879 237.613073,181.059879 C239.440073,192.039879 235.745073,200.767879 226.212073,206.651879 C223.572073,208.280879 222.256073,209.884879 222.088073,213.189879 C221.917073,216.557879 220.434073,219.858879 219.353073,223.825879 C216.612073,219.891879 214.352073,216.647879 212.093073,213.403879 L211.064073,213.974879 C211.648073,215.777879 212.349073,217.552879 212.797073,219.388879 C214.383073,225.905879 213.562073,231.623879 208.663073,236.907879 C205.655073,240.152879 203.968073,244.623879 201.067073,249.612879 C197.676073,247.868879 193.412073,245.676879 188.627073,243.216879 C186.517073,249.629879 180.595073,251.868879 173.803073,253.093879 C165.396073,254.609879 158.936073,258.867879 155.938073,268.309879 C154.404073,266.458879 153.419073,265.274879 152.440073,264.085879 C147.743073,258.374879 141.826073,254.262879 134.679073,252.676879 C128.629073,251.335879 124.250073,248.571879 122.116073,242.967879 C117.802073,245.378879 113.605073,247.724879 110.379073,249.527879 C106.402073,243.708879 102.895073,238.894879 99.730073,233.865879 C95.680073,227.428879 97.116073,220.819879 99.824073,214.284879 L98.720073,213.600879 L98.720073,213.600879 L97.8985613,214.768836 C95.9770887,217.500394 94.007573,220.298754 91.659073,223.636879 C90.636073,220.335879 88.988073,217.322879 88.937073,214.282879 C88.871073,210.237879 87.111073,208.216879 83.943073,206.148879 C73.743073,199.492879 70.310073,188.403879 74.281073,176.302879 C74.885073,174.462879 75.557073,172.643879 75.282073,170.335879 C73.087073,173.951879 70.890073,177.568879 68.455073,181.579879 C66.239073,167.837879 66.820073,154.849879 73.344073,141.971879 C70.689073,144.359879 68.033073,146.746879 65.394073,149.119879 C63.715073,140.743879 67.558073,125.648879 73.939073,116.027879 C74.263073,117.022879 74.519073,117.808879 74.822073,118.736879 C76.954073,115.354879 79.039073,112.047879 81.564073,108.041879 C79.430073,108.941879 77.979073,109.553879 75.306073,110.682879 C73.049073,104.865879 70.805073,99.0878786 68.244073,92.4868786 C73.437073,92.1468786 77.010073,91.9128786 80.583073,91.6778786 C80.650073,91.4968786 80.718073,91.3138786 80.785073,91.1328786 C77.756073,90.3098786 74.725073,89.4888786 71.044073,88.4908786 C77.891073,82.1468786 85.724073,79.7388786 94.305073,79.0518786 C94.472073,78.5428786 94.638073,78.0318786 94.805073,77.5208786 C88.427073,74.4348786 82.050073,71.3478786 75.444073,68.1508786 C87.650073,61.9998786 100.763073,60.0218786 114.579073,62.0918786 C110.034073,58.1268786 103.504073,56.3118786 88.803073,55.0908786 C94.5707397,50.8947453 100.769166,49.2933897 107.063927,48.0428445 L108.209416,47.8188388 C108.400483,47.7819823 108.59162,47.745323 108.782817,47.7087986 L109.930653,47.4907702 C111.270469,47.2371255 112.61234,46.9839675 113.953073,46.7098786 C110.971073,46.0308786 107.991073,45.3518786 105.010073,44.6738786 C105.025073,44.0988786 105.040073,43.5248786 105.055073,42.9508786 C113.972073,42.9308786 122.993073,43.7448786 131.777073,42.6518786 C140.286073,41.5928786 147.487073,43.7058786 154.723073,47.4248786 C155.575073,47.8628786 157.180073,47.0168786 158.370073,46.5838786 C162.424073,45.1048786 166.343073,43.0188786 170.516073,42.1888786 C173.651073,41.5638786 177.098073,42.6868786 180.410073,42.7258786 Z M127.505073,235.455879 C128.801073,241.445879 132.709073,243.495879 137.922073,244.336879 C141.418073,244.899879 144.804073,246.135879 148.240073,247.071879 C148.129073,247.468879 148.016073,247.866879 147.905073,248.264879 C146.503073,248.350879 145.100073,248.437879 143.325073,248.548879 C147.527073,251.105879 151.325073,253.416879 155.120073,255.729879 C159.085073,253.381879 163.049073,251.031879 167.314073,248.504879 C165.479073,248.421879 163.884073,248.348879 162.290073,248.276879 C162.194073,247.855879 162.099073,247.434879 162.004073,247.013879 C165.552073,246.091879 169.056073,244.906879 172.659073,244.306879 C178.860073,243.274879 181.511073,241.080879 182.185073,235.643879 C178.532073,236.627879 174.900073,238.446879 171.283073,238.420879 C160.510073,238.340879 149.749073,238.271879 138.973073,238.419879 C135.249073,238.469879 131.498073,236.546879 127.505073,235.455879 Z M207.407073,108.848879 L207.407073,140.380879 C209.542073,137.453879 211.650073,134.562879 214.551073,130.586879 C214.281073,134.122879 214.677073,136.503879 213.856073,138.340879 C210.760073,145.263879 207.836073,152.370879 203.790073,158.736879 C198.267073,167.424879 193.099073,176.009879 193.093073,186.704879 C193.092323,187.694379 193.091886,188.683879 193.091651,189.677035 L193.091993,197.25139 C193.092042,197.768535 193.092073,198.288879 193.092073,198.812879 C192.145073,197.993879 191.158073,197.139879 189.619073,195.808879 C189.800073,211.252879 186.250073,224.461879 173.596073,233.806879 C174.021073,234.282879 174.445073,234.757879 174.869073,235.234879 C180.310073,231.547879 185.752073,227.860879 191.052073,224.267879 C191.211073,224.895879 191.481073,225.964879 191.751073,227.032879 C192.259073,227.097879 192.767073,227.163879 193.276073,227.228879 C194.299073,221.436879 195.321073,215.644879 196.486073,209.046879 C198.623073,212.606879 200.416073,215.593879 202.209073,218.582879 C202.670073,218.575879 203.130073,218.568879 203.591073,218.561879 C197.487073,197.382879 195.568073,176.924879 212.622073,159.744879 C207.288073,180.760879 208.232073,190.743879 216.246073,197.346879 C213.345073,186.754879 212.530073,175.989879 217.465073,166.114879 C222.770073,155.495879 223.609073,144.931879 220.507073,133.702879 C220.905073,133.584879 221.304073,133.466879 221.703073,133.349879 C224.348073,138.893879 226.993073,144.437879 230.070073,150.885879 C229.374073,132.082879 220.559073,119.063879 207.407073,108.848879 Z M103.918073,108.219879 C90.407073,118.918879 81.104073,131.894879 80.666073,150.863879 C83.630073,144.552879 86.208073,139.062879 88.787073,133.571879 C89.206073,133.649879 89.626073,133.727879 90.046073,133.805879 C87.012073,145.419879 87.643073,156.551879 93.728073,167.104879 C94.772073,168.915879 95.427073,171.204879 95.477073,173.291879 C95.676073,181.443879 95.558073,189.602879 95.558073,197.107879 C104.085073,185.866879 103.369073,173.023879 98.085073,159.690879 C107.595073,171.394879 114.079073,183.904879 110.944073,199.558879 C109.612073,206.213879 108.589073,212.930879 107.273073,220.497879 C110.014073,216.115879 112.177073,212.658879 114.342073,209.201879 C114.898073,219.130879 116.980073,228.261879 119.300073,227.119879 C119.434073,225.908879 119.578073,224.633879 119.740073,223.178879 C128.382073,231.782879 131.044073,233.425879 137.033073,233.701879 C124.216073,224.508879 121.238073,211.126879 120.760073,196.270879 C119.936073,196.906379 119.269323,197.420629 118.625948,197.916879 L117.985406,198.410953 C117.556962,198.741434 117.119073,199.079212 116.632073,199.454879 C119.034073,185.068879 116.681073,172.478879 108.311073,160.987879 C104.328073,155.517879 100.996073,149.461879 98.174073,143.301879 C97.180073,141.132515 96.8599243,138.654573 96.5912789,136.152812 L96.477484,135.08 C96.3632135,134.007391 96.242073,132.937879 96.065073,131.893879 C96.412073,131.895879 96.759073,131.897879 97.104073,131.899879 C99.218073,134.762879 101.330073,137.626879 104.129073,141.421879 C103.405073,134.639879 102.416073,129.381879 102.403073,124.119879 C102.391073,118.879879 103.360073,113.634879 103.918073,108.219879 Z M136.770073,200.173879 C140.599427,200.409448 139.465289,201.262704 138.370601,202.140268 L138.22204,202.26003 C137.755346,202.639403 137.338411,203.018279 137.374073,203.348879 C137.558073,205.071879 137.079073,206.964879 137.631073,208.518879 C138.147073,209.974879 139.637073,211.084879 141.184073,212.923879 C141.361073,210.566879 141.458073,209.269879 141.544073,208.115879 C151.206073,217.196879 160.227073,217.287879 169.404073,207.925879 C169.506073,209.492879 169.589073,210.783879 169.679073,212.187879 C174.927073,208.307879 175.309073,206.174879 171.876073,200.670879 C172.720073,200.590879 173.487073,200.518879 174.622073,200.412879 C162.356073,191.264879 148.183073,191.206879 136.770073,200.173879 Z M166.301073,85.9248786 C162.589073,89.3118786 158.877073,92.6988786 155.210073,96.0448786 C151.699073,92.9588786 148.017073,89.7208786 144.336073,86.4848786 L143.670073,87.2968786 L143.670073,87.2968786 C144.262073,88.9668786 144.855073,90.6358786 145.708073,93.0388786 C141.410194,91.6801816 137.006167,91.5851825 132.659709,91.4976842 L131.657777,91.4770537 C125.319623,91.3399943 119.131346,91.0125453 113.604073,86.5728786 C113.361073,87.0978786 113.118073,87.6248786 112.874073,88.1498786 C116.651073,90.8158786 120.427073,93.4818786 123.918073,95.9458786 C119.362073,99.5528786 114.589073,103.334879 109.814073,107.115879 L110.614073,108.209879 L110.614073,108.209879 C112.832073,107.617879 115.050073,107.025879 117.882073,106.269879 C111.264073,118.929879 111.289073,119.861879 116.006073,132.525879 C117.565073,136.714879 118.619073,141.091879 119.904073,145.381879 C119.596073,145.468879 119.289073,145.557879 118.981073,145.645879 C116.833073,142.625879 114.683073,139.604879 112.534073,136.583879 C112.820073,147.412879 117.836073,155.538879 124.891073,162.776879 C127.491073,165.443879 129.262073,168.929879 131.321073,172.101879 C131.603073,172.538879 131.360073,173.315879 131.360073,174.043879 C130.036073,173.157879 128.946073,172.427879 127.856073,171.698879 L126.541073,172.427879 C126.908273,173.914812 127.249091,175.410847 127.586984,176.90785 L128.094561,179.153063 C128.861433,182.518919 129.672873,185.869079 130.796073,189.110879 C132.193073,193.141879 135.979073,194.614879 140.150073,194.273879 C145.595073,193.829879 150.113073,191.806879 152.414073,186.330879 C154.090073,182.340879 153.731073,178.835879 150.248073,176.032879 C147.810073,174.071879 145.347073,172.097879 142.691073,170.464879 C139.427073,168.455879 137.113073,166.037879 136.668073,161.618879 C138.623073,163.752879 140.163073,165.433879 141.703073,167.114879 C145.099073,164.005879 165.636073,163.939879 169.476073,166.970879 C170.980073,165.261879 172.498073,163.538879 174.244073,161.555879 C173.715073,166.133879 171.393073,168.807879 167.714073,170.724879 C165.399073,171.930879 163.178073,173.518879 161.312073,175.341879 C156.430073,180.110879 156.390073,185.466879 160.911073,190.134879 C165.505073,194.879879 173.936073,195.732879 178.157073,191.879879 C181.887073,188.474879 184.465073,176.799879 182.608073,171.609879 C181.433073,172.672879 180.271073,173.723879 179.108073,174.775879 C178.697073,174.477879 178.285073,174.180879 177.873073,173.883879 C180.045073,170.556879 182.020073,167.080879 184.445073,163.951879 C186.572073,161.206879 189.388073,159.001879 191.570073,156.292879 C196.400073,150.295879 199.197073,142.281879 198.488073,136.169879 C196.034073,139.696879 193.962073,142.676879 191.888073,145.656879 C192.052073,141.658879 192.693073,137.847879 194.214073,134.426879 C198.399073,125.012879 200.547073,115.822879 191.941073,106.031879 C195.831073,107.023879 198.134073,107.611879 200.439073,108.198879 C200.677073,107.834879 200.917073,107.469879 201.155073,107.105879 C196.296073,103.300879 191.436073,99.4968786 186.937073,95.9738786 C190.409073,93.5278786 194.181073,90.8698786 197.954073,88.2128786 C197.703073,87.7108786 197.451073,87.2098786 197.200073,86.7078786 C191.420273,91.2000786 184.992113,91.3906386 178.434209,91.4926386 L177.424347,91.5082004 C173.381364,91.5721984 169.299319,91.6844786 165.299073,92.8268786 C166.171073,90.2558786 166.766073,88.4968786 167.363073,86.7388786 C167.009073,86.4668786 166.654073,86.1958786 166.301073,85.9248786 Z M194.401573,112.728179 C194.444573,112.879179 194.824573,113.569179 194.662573,113.737179 C190.217573,118.360179 185.834573,123.057179 181.153573,127.434179 C179.734573,128.761179 176.421573,128.705179 175.785573,130.105179 C173.978573,134.085179 172.677573,138.426179 172.018573,142.753179 C171.618573,145.379179 172.778573,148.243179 173.256573,151.116179 C167.766573,144.902179 167.033573,140.789179 169.855573,133.393179 C170.907573,130.636179 171.926573,127.838179 172.597573,124.974179 C173.213573,122.342179 173.340573,119.596179 173.499573,118.342179 C180.097273,116.569929 185.791848,115.040439 191.422193,113.528325 L193.408072,112.994992 C193.739063,112.906101 194.070173,112.817179 194.401573,112.728179 Z M115.786273,112.393279 C123.635273,114.493279 130.247273,116.262279 137.258273,118.138279 C139.159273,124.665279 142.012273,132.084279 143.234273,139.762279 C143.767273,143.112279 140.958273,146.992279 138.938273,150.513279 C140.346273,143.680279 139.886273,137.259279 136.398273,131.321279 C135.678273,130.094279 134.311273,128.853279 132.988273,128.448279 C128.880273,127.191279 125.351273,125.593279 123.321273,121.350279 C122.549273,119.739279 120.234273,118.938279 118.931273,117.489279 C117.796273,116.227279 117.097273,114.573279 115.786273,112.393279 Z M127.031273,118.254279 L125.264273,120.223279 C127.208273,121.867279 128.999273,123.789279 131.184273,124.999279 C131.915273,125.403279 133.800273,124.165279 134.847273,123.301279 C135.200273,123.009279 134.591273,121.553279 134.268273,119.791279 C132.933273,121.463279 132.251273,122.316279 131.895273,122.762279 C130.075273,121.075279 128.553273,119.664279 127.031273,118.254279 Z M184.310573,118.243179 C182.777573,119.755179 181.243573,121.268179 179.628573,122.862179 L179.5312,122.737982 L179.5312,122.737982 L179.168721,122.275623 C178.805684,121.812512 178.345906,121.225845 177.886573,120.639179 C177.339573,120.975179 176.791573,121.312179 176.244573,121.648179 C177.134573,122.800179 177.924573,124.836179 178.933573,124.951179 C182.905573,125.404179 184.814573,122.978179 185.409573,119.402179 C185.043573,119.016179 184.677573,118.629179 184.310573,118.243179 Z M237.322073,96.1958786 C231.338073,96.5978786 226.562073,96.9188786 221.418073,97.2638786 C225.744073,99.8398786 229.377073,102.001879 233.497073,104.453879 C233.680705,104.057247 233.861594,103.666599 234.042362,103.276258 L234.404515,102.494303 C235.252788,100.662848 236.136494,98.7556681 237.322073,96.1958786 Z M73.663073,96.2628786 C75.301073,99.7068786 76.386073,101.989879 77.558073,104.453879 C81.673073,102.006879 85.276073,99.8628786 89.778073,97.1848786 C84.541073,96.8848786 79.693073,96.6078786 73.663073,96.2628786 Z M178.026073,60.2898786 C170.473073,63.7518786 162.921073,67.2138786 156.027073,70.3738786 C148.550073,67.0178786 141.098073,63.6748786 133.648073,60.3318786 C133.392073,60.8228786 133.135073,61.3138786 132.880073,61.8048786 C136.106073,64.3808786 139.332073,66.9558786 143.508073,70.2898786 C135.908073,69.4658786 129.819073,68.8038786 122.968073,68.0608786 C124.931073,70.7988786 126.158073,72.5088786 127.993073,75.0668786 C124.488073,73.9808786 122.033073,73.0878786 119.509073,72.4758786 C116.926073,71.8518786 114.291073,71.4138786 111.656073,71.0638786 C109.236073,70.7428786 106.786073,70.6488786 105.242073,70.5258786 C114.948073,74.5668786 125.223073,78.8438786 135.884073,83.2828786 L135.682064,82.450578 C135.042313,79.8155543 134.393168,77.1493072 133.482073,73.4008786 C140.067073,75.7228786 146.043073,77.5178786 151.737073,79.9668786 C154.794073,81.2818786 157.145073,81.1878786 160.165073,79.9098786 C165.877073,77.4928786 171.853073,75.7008786 178.371073,73.4218786 C177.335073,77.5998786 176.611073,80.5188786 175.939073,83.2278786 C186.490073,78.8418786 196.652073,74.6188786 206.813073,70.3948786 C206.792073,70.2048786 206.769073,70.0148786 206.748073,69.8248786 C199.370073,71.3118786 191.993073,72.7998786 184.396073,74.3308786 C185.669073,72.5318786 186.945073,70.7278786 188.882073,67.9918786 C181.760073,68.7978786 175.624073,69.4908786 168.173073,70.3338786 C172.345073,67.0228786 175.599073,64.4418786 178.852073,61.8598786 L178.026073,60.2898786 Z" id="Combined-Shape-Copy-4" fill="#FFFFFF"></path></g></svg>