<svg xmlns="http://www.w3.org/2000/svg" xmlns:xlink="http://www.w3.org/1999/xlink" width="311px" height="311px" viewBox="0 0 311 311"><title>emblem-00-logo-a</title><g id="emblem-00-logo-a" stroke="none" stroke-width="1" fill="none" fill-rule="evenodd"><path d="M155.501652,116.985756 C152.948526,114.39584 150.61016,111.983652 147.647039,109.798934 C134.294031,99.9629533 121.123429,102.600375 113.588445,107.659487 C109.769635,110.225929 107.401146,113.421128 107.196428,115.928887 C107.026294,118.054921 106.627455,119.51587 105.839261,121.382018 C105.381851,122.462361 104.625452,123.225811 104.658363,124.487235 C104.701873,126.414861 106.343527,127.979765 108.321543,127.979765 C109.915783,127.979765 111.15023,127.093359 111.639435,125.653088 C115.724882,117.894518 126.345706,118.345546 133.881247,124.817542 C135.117926,125.948185 136.52195,126.556821 138.218827,126.556821 L138.376689,126.556821 L140.120981,126.556821 C139.842073,128.590637 140.173416,131.068774 142.322124,132.535872 C139.449928,137.129983 138.121767,143.334827 137.245438,148.085988 L137.23707,148.112256 C134.258889,145.983427 133.848894,139.988727 133.558829,139.141443 C133.247568,138.721714 132.708717,138.395878 131.908808,138.457357 L122.398039,138.454562 C121.791693,138.454562 121.278502,138.454562 120.68387,138.457357 C119.38862,138.460151 118.142458,138.131521 117.084838,137.544124 C115.970879,136.92431 115.062196,136.020019 114.514421,134.913408 C114.274002,134.361221 113.752443,133.943726 113.10203,133.868835 C112.227931,133.771028 111.43137,134.328805 111.21159,135.14479 L111.196529,135.177206 C110.021768,137.880578 111.219957,137.958264 111.492729,138.998925 C111.425234,139.02687 110.803826,138.643469 110.736888,138.670296 C108.681893,139.490752 106.832731,140.71529 105.294274,142.243866 C102.3345,145.176943 100.50542,149.031637 100.50542,153.505027 C100.50542,156.513555 101.334893,159.332618 102.77406,161.745923 L102.969853,162.075112 C104.115608,162.075112 105.26471,162.084054 106.431104,162.066729 L111.706373,161.988483 C118.723145,161.887323 126.439977,162.10138 127.970067,170.637931 C126.513051,171.738953 124.734174,173.043971 122.996018,175.068845 C117.386617,181.614057 115.124114,191.692038 124.646039,200.505801 C124.766528,200.503007 124.883111,200.503007 125.0036,200.501889 C126.140987,200.470591 127.483093,195.840152 129.303248,195.433277 C132.034875,194.819611 135.035927,193.941588 136.805878,193.292712 C141.870293,191.4383 148.669517,188.996491 151.237145,183.732825 C154.226483,177.392169 152.784528,173.063533 148.804508,171.322018 L140.366978,167.126957 C138.289112,166.092444 136.776872,164.311248 136.776872,162.039902 L136.776872,161.614024 L136.776872,160.087125 L137.620848,160.087125 C138.203766,160.936085 139.279236,161.614024 140.18513,161.616819 L146.905144,161.614024 C150.387591,161.645322 153.549294,162.271843 155.501652,163.679697 C157.450662,162.271843 160.609576,161.645322 164.094813,161.614024 L170.80869,161.616819 C171.72072,161.614024 172.79619,160.936085 173.379666,160.087125 L174.220853,160.087125 L174.220853,161.614024 L174.220853,162.039902 C174.220853,164.311248 172.711402,166.092444 170.630189,167.126957 L162.195448,171.322018 C158.215428,173.063533 156.773473,177.392169 159.763369,183.732825 C162.33044,188.996491 169.126874,191.4383 174.191289,193.292712 C175.966818,193.941588 178.965081,194.819611 181.693919,195.433277 C183.52021,195.840152 184.85618,200.470591 185.996357,200.501889 L185.999704,200.501889 C186.116845,200.503007 186.233986,200.503007 186.354475,200.505801 C195.870264,191.692038 193.616686,181.614057 187.99836,175.068845 C186.265782,173.043971 184.484117,171.738953 183.030447,170.637931 C184.560537,162.10138 192.274022,161.887323 199.29693,161.988483 L204.566064,162.066729 C205.735804,162.084054 206.884348,162.075112 208.027314,162.075112 L208.226454,161.745923 C209.66841,159.332618 210.495094,156.513555 210.495094,153.505027 C210.495094,149.031637 208.666572,145.176943 205.70624,142.243866 C204.226353,140.777327 202.459191,139.585205 200.497909,138.766984 C200.357339,138.7083 199.583648,139.29458 199.440289,139.238132 L199.448656,139.200127 C199.768285,137.967206 201.002175,137.937585 199.800638,135.177206 L199.788924,135.14479 C199.571934,134.328805 198.772025,133.771028 197.895695,133.868835 C197.247513,133.943726 196.722608,134.361221 196.486093,134.913408 C195.931624,136.020019 195.02573,136.92431 193.915118,137.544124 C192.854709,138.131521 191.611894,138.460151 190.316644,138.457357 C189.718665,138.454562 189.202685,138.454562 188.601917,138.454562 L179.094495,138.457357 C178.289008,138.395878 177.752389,138.721714 177.444474,139.141443 C177.148831,139.988727 176.741068,145.983427 173.762886,148.112256 L173.754519,148.085988 C172.878189,143.334827 171.547797,137.129983 168.67839,132.535872 C170.820962,131.068774 170.955396,128.525805 170.878975,126.556821 L172.626056,126.556821 L172.778898,126.556821 C174.472986,126.556821 175.88203,125.948185 177.119267,124.817542 C184.65425,118.345546 195.275632,117.894518 199.360521,125.653088 C199.850284,127.093359 201.084174,127.979765 202.678413,127.979765 C204.653641,127.979765 206.295294,126.414861 206.339362,124.487235 C206.371157,123.225811 205.615316,122.462361 205.158464,121.382018 C204.369154,119.51587 203.973663,118.054921 203.800739,115.928887 C203.596021,113.421128 201.230879,110.225929 197.40928,107.659487 C189.877085,102.600375 176.705925,99.9629533 163.350128,109.798934 C160.387007,111.983652 158.048083,114.39584 155.501652,116.985756 M155.501652,225.519116 C154.158988,225.54706 152.720379,226.092541 148.505519,227.151646 C147.635325,227.370174 146.307722,227.854735 145.496099,227.875414 C143.660884,227.91789 141.85579,226.69447 140.988385,225.116712 C140.800959,224.774668 140.689396,224.468953 140.551615,224.110702 C138.268473,218.281993 131.74481,213.962299 132.38351,207.578609 C132.816933,203.790423 136.017684,200.722094 140.366978,198.512226 C145.352183,195.979317 150.425523,194.711185 155.501652,194.711185 C160.574991,194.711185 165.647773,195.979317 170.633536,198.512226 C174.98283,200.722094 178.183023,203.790423 178.616446,207.578609 C179.258493,213.962299 172.73483,218.281993 170.451688,224.110702 C170.307771,224.468953 170.199555,224.774668 170.012129,225.116712 C169.144166,226.69447 167.336284,227.91789 165.501626,227.875414 C164.692792,227.854735 163.361842,227.370174 162.494438,227.151646 C158.279577,226.092541 156.840969,225.54706 155.501652,225.519116 M58.7205121,152.050225 C53.0408258,165.975076 56.973989,180.300655 64.7906698,192.494052 C67.1061655,196.115128 69.1221139,199.576919 70.4117853,203.730622 C71.554751,207.405352 72.050092,211.422125 71.3204682,215.755232 C75.7986179,214.962161 79.4060164,212.964114 81.7510764,210.188645 C85.044982,206.288122 86.3909929,202.119888 81.976992,198.769317 C81.3410814,198.283079 80.7196739,197.81752 80.3704809,197.440825 L80.3704809,197.424058 C87.8000371,200.10228 93.4362136,198.212658 98.0605113,192.183865 C98.1809996,192.03017 98.2981411,191.871444 98.4186294,191.709923 C98.5591991,191.745133 98.6969798,191.775873 98.8347604,191.80773 C99.9894403,192.079911 101.161412,192.285584 102.346214,192.309058 C103.512051,192.333649 104.578596,192.171011 105.507918,191.752399 C109.339,190.014238 110.302907,186.597158 111.39288,182.699429 L111.404594,182.66869 C112.876114,177.409495 114.256709,173.787301 118.723145,170.339482 C117.152334,169.355269 115.616108,168.734896 113.796511,168.360437 C110.408334,167.669085 106.803167,167.989331 103.684974,169.391597 C101.639461,170.417727 99.7166681,172.658334 98.6674155,174.895588 C98.8113321,173.56542 98.890542,171.694801 97.9729341,170.162312 C96.5867604,168.174325 94.7604697,166.620599 92.3752469,165.713514 C87.3286822,163.784211 80.2594754,165.830882 77.9322655,170.975504 C77.0029435,173.012114 76.8802239,175.412565 77.472067,178.003599 C79.8310724,174.578695 84.6087696,174.229386 86.6632073,178.199212 C88.474437,181.692302 87.0938415,185.810794 82.9001781,186.575361 C78.6211687,187.355578 73.9756741,184.213474 71.5196086,180.937236 C70.5874974,179.692578 69.8405813,178.29646 69.3452404,176.757824 C66.9683849,169.43072 70.7487064,161.482125 75.4059152,155.647269 C76.4875211,154.124841 77.6567043,152.635946 79.0138715,151.216355 C78.0700462,153.906313 78.6005295,156.685694 81.7510764,158.647972 C82.2932739,158.922948 82.8499746,159.147624 83.4273146,159.318086 C85.9040192,160.048561 89.0573551,159.784763 91.6718404,158.296428 C92.4076002,157.871668 93.1165848,157.356367 93.7820598,156.74829 C94.3649779,156.213987 94.9133114,155.612058 95.4175773,154.938032 C95.1420161,154.848609 94.8692439,154.745772 94.6081858,154.629522 C92.5922375,153.740321 91.1117928,152.12344 90.2683745,150.264558 L90.2683745,150.262881 C89.4238405,148.407352 89.215775,146.306468 89.7434693,144.456528 C89.8310464,144.14243 89.9398206,143.842862 90.063098,143.547207 C90.9505839,141.534629 92.876166,139.561732 94.8195982,137.576539 C96.4104905,135.947921 98.0170016,134.301978 99.0461728,132.634237 C99.9308696,131.195084 100.569569,129.603912 100.915415,127.976971 C101.261262,126.367914 101.323179,124.718617 101.076624,123.129122 C100.684479,120.620804 99.720015,118.771423 98.3159912,117.308797 C96.9883882,115.930004 94.8664548,114.889343 92.8560846,113.957108 C94.1541233,116.82703 94.0665461,119.342054 93.0463,121.411081 C91.2116419,125.127169 86.6866356,126.960901 82.7914039,127.429813 C77.8207023,128.031743 72.2403073,126.742373 68.5715491,123.035228 C65.1476722,119.584614 63.4859373,114.630575 64.4269735,109.824084 C60.394519,111.857342 57.3404744,115.488478 56.0541498,119.831087 C54.5915553,124.751592 55.5175305,130.158894 58.5710173,134.298065 C59.221989,135.185031 59.9343205,135.970277 60.6990867,136.673366 C63.6181398,139.054815 67.3549516,139.310229 71.0097644,138.645145 L71.0097644,138.730656 C68.3311302,139.934514 65.9860702,141.543012 63.9784891,143.560621 C61.7572644,146.027021 60.0364009,148.819816 58.7205121,152.050225 M252.276097,152.050225 C257.95913,165.975076 254.023178,180.300655 246.209286,192.494052 C243.891002,196.115128 241.875053,199.576919 240.585382,203.730622 C239.442416,207.405352 238.953211,211.422125 239.679488,215.755232 C235.204685,214.962161 231.59394,212.964114 229.24888,210.188645 C227.425936,208.033549 226.473186,205.596211 226.295242,202.973879 C226.552953,199.162779 227.475582,199.775886 229.653855,197.402261 L229.653855,197.383259 C227.625634,198.260723 226.204318,200.209588 220.685283,198.10535 C217.350099,196.835543 214.366339,194.14279 212.578538,191.709923 C211.295002,192.026816 209.985249,192.28279 208.651511,192.309058 C207.487906,192.333649 206.421361,192.171011 205.494828,191.752399 C201.658725,190.014238 200.694818,186.597158 199.604287,182.699429 L199.595362,182.66869 C198.127189,177.409495 196.743805,173.787301 192.277369,170.339482 C193.845391,169.355269 195.383848,168.734896 197.204003,168.360437 C200.588833,167.669085 204.194,167.989331 207.312193,169.391597 C209.357706,170.417727 211.286635,172.658334 212.332541,174.895588 C212.191971,173.56542 212.109414,171.694801 213.02758,170.162312 C214.413196,168.174325 216.239487,166.620599 218.62192,165.713514 C223.671832,163.784211 230.734903,165.830882 233.068249,170.975504 C233.991435,173.012114 234.117501,175.412565 233.527889,178.003599 C231.166095,174.578695 226.391744,174.229386 224.33396,178.199212 C222.525519,181.692302 223.906673,185.810794 228.103125,186.575361 C232.378788,187.355578 237.024282,184.213474 239.480905,180.937236 C240.40967,179.692578 241.159933,178.29646 241.655274,176.757824 C244.025993,169.43072 240.245672,161.482125 235.591252,155.647269 C234.805847,154.541776 231.643586,150.062238 230.881608,149.268049 C232.006724,151.629936 234.266438,155.518164 229.24888,158.647972 C228.706682,158.922948 228.146635,159.147624 227.572642,159.318086 C225.096495,160.048561 221.942601,159.784763 219.328674,158.296428 C218.592914,157.871668 217.883371,157.356367 217.218454,156.74829 C216.634978,156.213987 216.086645,155.612058 215.57959,154.938032 C215.85794,154.848609 216.128481,154.745772 216.39177,154.629522 C218.407719,153.740321 219.885374,152.12344 220.729908,150.264558 L220.729908,150.262881 C221.573327,148.407352 221.781392,146.306468 221.257045,144.456528 C221.16891,144.14243 221.060136,143.842862 220.93128,143.547207 C220.049372,141.534629 218.12379,139.561732 216.177569,137.576539 C214.589466,135.947921 212.983512,134.301978 211.951552,132.634237 C211.066298,131.195084 210.430387,129.603912 210.081752,127.976971 C209.738695,126.367914 209.671199,124.718617 209.92389,123.129122 C210.316592,120.620804 211.277152,118.771423 212.681176,117.308797 C214.009337,115.930004 216.136848,114.889343 218.144429,113.957108 C216.846391,116.82703 216.933968,119.342054 217.954214,121.411081 C219.788314,125.127169 224.313321,126.960901 228.20911,127.429813 C233.182601,128.031743 238.75686,126.742373 242.428965,123.035228 C245.849495,119.584614 247.514019,114.630575 246.573541,109.824084 C250.605437,111.857342 253.66004,115.488478 254.949153,119.831087 C256.408401,124.751592 255.479637,130.158894 252.428939,134.298065 C251.772389,135.185031 251.065636,135.970277 250.30087,136.673366 C247.379027,139.054815 243.645562,139.310229 239.987961,138.645145 L239.987961,138.730656 C242.669384,139.934514 245.014444,141.543012 247.01812,143.560621 C249.24325,146.027021 250.960766,148.819816 252.276097,152.050225 M139.660782,254.932046 C139.678075,245.336949 152.966376,244.207982 153.365215,252.572394 C153.470084,254.700105 152.371186,256.480742 150.404883,257.302875 C154.062485,264.393567 163.830966,260.0504 164.572304,252.553392 C164.968353,248.562886 163.253068,244.243192 160.606787,241.293348 C159.264681,239.800542 157.638088,238.522909 155.809008,237.459892 C150.19124,234.200421 142.529632,234.752608 136.78245,237.762254 C134.098238,239.414346 132.690867,242.798451 132.849287,245.919875 C132.400802,244.423715 132.122452,242.892345 132.002522,241.327441 L131.431318,236.721593 C131.102764,234.213275 130.750782,231.883804 130.393221,229.889669 C130.0563,227.161706 129.520239,224.691952 128.637773,222.365275 C125.411363,213.836548 118.013603,210.539631 115.795167,204.660063 C114.898198,202.284203 114.353212,197.353638 114.549563,194.811228 C111.284664,194.190855 108.034268,195.817796 106.026687,198.357971 C104.804511,199.908902 104.098316,201.596763 104.136247,203.353368 L104.136247,203.356162 L104.136247,203.367899 C104.142383,203.546745 104.154097,203.721679 104.1686,203.890465 C104.18924,204.072665 104.218246,204.255982 104.253389,204.436505 C104.462012,205.398362 105.006998,206.262972 106.484096,207.36567 C104.827939,206.647491 104.051459,206.483176 102.296011,206.468645 C100.681133,206.590484 99.1041857,206.824102 97.4480289,207.247743 C95.2736607,207.804961 93.1751556,208.629889 91.2702127,209.754384 C88.8610038,211.177329 86.8679259,213.003796 85.4527458,215.195779 C84.1134287,217.261452 83.292323,219.655197 83.1227468,222.334536 C82.7473364,228.52932 85.2418912,232.866899 88.7845829,235.427753 C90.5612281,236.708179 92.5922375,237.548198 94.6667565,237.948925 C96.7362552,238.354123 98.8464745,238.328973 100.756996,237.876827 C103.864033,237.144676 106.460668,235.293059 107.562913,232.362217 C104.924999,233.88744 101.58089,232.506412 99.7083008,230.469801 C98.1486463,228.772439 97.4335257,226.788365 97.9963624,224.629356 C98.5067644,222.683845 99.8957271,221.080377 101.751024,220.23477 C104.338734,219.061651 106.923656,219.630047 109.230226,221.146886 C114.162996,224.38959 116.445581,230.039453 117.325257,235.695463 C117.808326,237.991401 118.283028,239.304243 119.605053,241.178775 C118.040378,239.307038 115.970879,238.892897 114.168574,239.128751 C111.902724,239.50824 109.716642,240.581317 108.160334,242.124424 C107.744203,242.532417 107.368793,242.98065 107.031872,243.461858 C105.619481,245.485056 105.042141,248.153217 104.930578,250.596144 C104.92221,250.829762 104.913285,251.060026 104.910496,251.296438 C114.065936,249.431967 118.834151,252.965856 122.565384,262.111602 C123.731778,264.972023 125.545797,267.257901 127.740804,269.181056 C129.939159,271.107006 132.521291,272.665203 135.220564,274.065792 C137.210295,275.096952 139.390799,276.024717 141.606446,276.969807 C146.624004,279.109254 151.829546,281.327506 155.501652,285 C159.170968,281.327506 164.375952,279.109254 169.390163,276.969807 C171.609157,276.024717 173.79245,275.096952 175.782181,274.065792 C178.481455,272.665203 181.060797,271.107006 183.259152,269.181056 C185.454159,267.257901 187.265389,264.972023 188.434572,262.111602 C190.955902,255.933025 194.9415,250.427358 202.420702,250.807406 C203.536892,250.864413 204.756837,251.020345 206.08444,251.296438 C206.066032,249.402346 205.791028,247.474719 205.122764,245.700789 C201.497516,237.838823 195.070356,238.242344 191.585677,244.307465 C192.074882,243.024803 193.303193,238.727465 193.461055,237.335259 C194.135455,231.149417 196.359469,224.702571 201.766941,221.146886 C202.94226,220.372817 204.226353,219.823424 205.562324,219.659109 C207.915751,219.370161 210.196104,220.340401 211.646427,222.043352 C213.997065,224.806525 213.372868,228.438779 211.257071,230.728011 C209.475405,232.655637 205.881952,233.774543 203.437601,232.362217 C206.201581,239.713354 216.699685,239.409316 222.215373,235.427753 C225.761412,232.866899 228.255967,228.52932 227.87442,222.334536 C227.707633,219.655197 226.887085,217.261452 225.54721,215.195779 C224.134819,213.003796 222.136163,211.177329 219.726955,209.754384 C215.462448,207.234889 210.928517,206.427845 206.054875,206.361896 C206.84307,204.859588 207.0807,203.619961 206.714214,201.930423 C206.136874,199.291883 204.129293,196.922171 201.76973,195.676955 C200.166566,194.835819 198.325772,194.456889 196.450393,194.811228 C196.646745,197.353638 196.098411,202.284203 195.205347,204.660063 C192.986354,210.539631 185.589151,213.836548 182.362183,222.365275 C180.958717,226.081363 180.413173,230.151232 180.216821,235.076767 L180.436601,237.932717 C180.1404,237.348672 179.765548,236.476238 179.182072,235.789357 C175.097183,231.081791 166.743883,230.64753 163.950896,239.042681 C165.522265,239.636227 167.183442,240.75178 168.684526,242.152369 C177.64975,250.50225 174.076937,260.059342 164.87966,264.748465 C161.755889,266.342991 158.391698,267.55132 155.501652,269.562781 L155.501652,269.577312 C149.514051,265.520857 139.646279,263.802816 139.660782,254.932046 M155.501652,82.6204633 C141.802797,82.6322001 128.242281,84.4692856 114.822335,87.7801754 L106.701087,90.5617923 C113.661519,86.6847426 115.507892,86.9871044 118.796219,79.5487803 C119.772398,77.34506 120.44624,74.617097 121.137932,71.7907685 C122.152042,67.6739532 123.303933,62.8669033 125.81578,59.3989642 C128.113426,56.2216501 132.034875,54.6919565 135.757183,54.6036512 C138.130692,54.5477617 140.745177,55.085418 142.694188,56.5005384 C145.158621,58.295148 146.032161,61.4797277 144.710136,64.2412244 C143.339024,67.0938209 140.149987,67.706369 137.450714,66.4007919 C135.592628,65.5065611 134.699006,63.7890789 134.699006,61.768676 C132.052167,61.8921917 130.126585,63.6465609 129.195032,66.0548364 C128.26571,68.4564052 128.406279,71.2670846 129.520239,73.5864959 C130.967772,76.6123496 134.174101,79.0938403 139.587708,79.3023079 C142.573699,79.5135699 146.497938,78.3242428 149.713191,76.3016044 C151.647698,75.0854504 153.409282,73.570288 154.51097,71.6309248 C155.111738,70.5410809 155.501652,68.4899388 155.501652,67.2190132 C155.501652,68.4899388 155.885429,70.5410809 156.486197,71.6309248 C157.591232,73.570288 159.352258,75.0854504 161.283976,76.3016044 C164.49923,78.3242428 168.429604,79.5135699 171.410017,79.3023079 L171.412248,79.3023079 C176.826413,79.0938403 180.032742,76.6123496 181.479718,73.5864959 C182.590888,71.2670846 182.734247,68.4564052 181.804925,66.0548364 C180.873371,63.6465609 178.951136,61.8921917 176.298161,61.768676 C176.298161,63.7890789 175.407886,65.5065611 173.552031,66.4007919 C170.84718,67.706369 167.661491,67.0938209 166.28982,64.2412244 C164.965006,61.4797277 165.841336,58.295148 168.306326,56.5005384 C170.254779,55.085418 172.869822,54.5477617 175.240542,54.6036512 C178.965081,54.6919565 182.883741,56.2216501 185.184734,59.3989642 C187.693792,62.8669033 188.851261,67.6739532 189.859235,71.7907685 C190.557063,74.617097 191.228116,77.34506 192.200948,79.5487803 C192.787213,80.8705653 193.475559,82.1386964 194.260964,83.3447903 C194.548239,83.7762567 194.841651,84.2004575 195.143429,84.6173926 C195.749776,85.4451151 196.39238,86.2247726 197.077937,86.9798388 C197.912988,87.8455661 198.833943,88.6034267 199.888215,89.1925013 L196.178179,87.7801754 C182.754886,84.4692856 169.197159,82.6322001 155.501652,82.6204633 M65.0366668,63.5934659 C63.2784296,62.3443371 61.2150669,61.4691087 59.2247781,60.9962841 C57.0738382,60.483778 54.7438392,60.3418189 52.557199,60.7118069 C50.7342552,61.0197577 48.9263723,61.7189344 47.6746324,62.9065848 C46.6343049,63.8885621 45.977755,65.2041993 46.0005764,66.9105035 C46.0246116,68.9789713 47.469356,70.757373 49.489209,71.2139896 C50.2829817,71.391718 51.1275157,71.3593021 51.9212884,71.0832084 C52.4869142,70.8920665 52.897467,70.624915 53.3665906,70.2666638 C56.0424357,73.2841341 58.9904952,76.0042726 61.3997041,79.2570374 L59.0931334,81.7323803 C55.0952635,86.0263651 53.3783047,92.4709753 57.1061915,97.5669734 C61.0951363,103.018428 67.4548007,102.961421 72.4132304,99.0927549 C70.394493,97.5669734 69.319023,95.3543109 69.9577228,92.778926 C70.1685774,91.9405846 70.5350627,91.1301878 71.0036285,90.3639438 L69.7786637,87.3229999 L72.393149,89.7854882 C80.224333,96.5408435 84.7783458,96.9706332 94.5323228,94.5880669 L86.712853,97.7402307 C85.7455994,98.2421178 84.792849,98.7624483 83.8523706,99.3056936 C80.5757573,101.202581 76.9443728,103.651656 74.4883073,106.524931 C73.1813435,108.055743 72.4221555,109.506632 72.2698716,110.804385 C71.7572384,115.281128 75.4466358,117.582096 79.2682357,118.477445 C80.5227647,118.771423 81.7890079,118.939091 83.0697543,119.057577 C83.0697543,110.540587 85.6842396,109.26016 93.0078106,106.524931 C100.502074,103.727665 107.621484,101.13216 115.443743,99.1117573 C125.182101,96.5950563 135.255707,94.8948998 145.293612,94.1811918 L145.293612,96.1194372 C145.293612,98.5657176 146.386932,100.805766 148.189237,102.438855 C150.648091,104.669961 153.880637,105.248976 155.501652,108.528567 C157.119319,105.248976 160.351865,104.669961 162.811277,102.438855 C164.613582,100.805766 165.706902,98.5657176 165.706902,96.1194372 L165.706902,94.4466666 L165.706902,94.1811918 C175.741461,94.8948998 185.815066,96.5950563 195.556771,99.1117573 C203.375683,101.13216 210.497883,103.727665 217.988799,106.524931 C225.315717,109.26016 227.927413,110.540587 227.927413,119.057577 C229.210948,118.939091 230.473845,118.771423 231.731721,118.477445 C235.556667,117.582096 239.243276,115.281128 238.727296,110.804385 C238.577801,109.506632 237.818613,108.055743 236.50886,106.524931 C234.058373,103.651656 230.421968,101.202581 227.147586,99.3056936 C226.204318,98.7624483 225.251568,98.2421178 224.287661,97.7402307 L216.204344,94.5880669 C226.036973,96.992989 230.734903,96.5743772 238.606807,89.7854882 L241.218503,87.3229999 L239.993539,90.3639438 C240.462662,91.1301878 240.831937,91.9405846 241.040002,92.778926 C241.681491,95.3543109 240.605463,97.5669734 238.583379,99.0927549 C243.542366,102.961421 249.905378,103.018428 253.891533,97.5669734 C257.621652,92.4709753 255.901904,86.0263651 251.904034,81.7323803 L249.600252,79.2570374 C252.010019,76.0042726 254.955289,73.2841341 257.631134,70.2666638 C258.100258,70.624915 258.513042,70.8920665 259.079226,71.0832084 C259.870209,71.3593021 260.714185,71.391718 261.511305,71.2139896 C263.527811,70.757373 264.972556,68.9789713 264.999403,66.9105035 C265.022759,65.2041993 264.359515,63.8885621 263.325324,62.9065848 C262.074142,61.7189344 260.262912,61.0197577 258.445546,60.7118069 C256.253328,60.3418189 253.923329,60.483778 251.772389,60.9962841 C249.784889,61.4691087 247.722084,62.3443371 245.9605,63.5934659 C245.283311,64.074115 244.670829,64.5933278 244.116917,65.1678711 C243.747643,65.5495959 243.404586,65.9603832 243.093882,66.3979975 C242.528814,67.2760204 242.176832,68.2658222 241.875053,69.2757442 C241.815925,67.4185385 241.370787,65.7312366 240.541314,64.2205453 C239.457477,62.3560739 238.079671,60.6911278 236.335937,59.3151301 C231.271522,55.3201536 224.102466,54.8652137 218.314006,57.496488 C215.823356,58.6310434 213.64564,60.351879 212.25612,62.6629069 C211.652563,63.6728289 211.221928,64.7744095 211.002149,65.9441753 C210.796872,67.061405 210.782369,68.2451431 210.990435,69.4814173 C211.236432,70.9099511 212.136189,72.8174574 213.352787,74.3247953 C214.337333,75.542067 215.527155,76.4949818 216.740406,76.7179806 C216.280207,75.1240141 216.643346,73.4618625 217.654667,72.1518142 C219.507175,69.7558344 222.847937,69.3534305 225.362573,70.9362192 C228.20911,72.7246809 229.061454,76.5592547 227.698708,79.5459858 C224.466162,86.6288532 213.452636,84.6939611 208.499227,80.3798561 C205.321905,77.6183594 203.387955,73.7334851 203.083388,69.5283644 C202.506048,61.5602085 207.924676,54.2895526 215.820567,52.7671245 C214.542609,49.0566253 211.622998,46.9792152 207.754542,46.7724243 C205.588541,46.657851 203.31767,47.159738 201.400456,48.2037526 C198.522681,49.7792756 196.905014,52.1607242 196.73209,55.4011933 C194.419942,50.3985305 192.667283,46.3202788 187.728376,43.2983373 C184.299479,41.2019248 180.307745,40.2205065 176.365657,40.3619067 C168.640458,40.6441483 167.248706,43.3262821 162.368929,48.4166913 C163.634056,46.2096177 165.275152,43.9209456 166.251331,41.497021 C166.931867,39.8113958 167.292216,38.0598211 166.978165,36.2350312 C166.621163,34.1598567 165.43413,32.2076389 162.972486,30.6717974 L155.501652,26 L148.028028,30.6717974 C145.569173,32.2076389 144.379351,34.1598567 144.019002,36.2350312 C143.330098,40.265218 145.39625,42.7416786 147.319043,45.9910901 C142.831968,42.3878985 140.870686,40.5910534 134.634299,40.3619067 C130.689422,40.2205065 126.697688,41.2019248 123.268791,43.2983373 C118.336021,46.3202788 116.580572,50.3985305 114.268424,55.4011933 C114.095501,52.1607242 112.474486,49.7792756 109.596712,48.2037526 C107.685633,47.159738 105.411415,46.657851 103.245414,46.7724243 C99.379747,46.9792152 96.454558,49.0566253 95.1771585,52.7671245 C103.07528,54.2895526 108.494466,61.5602085 107.917126,69.5283644 C107.612559,73.7334851 105.678052,77.6183594 102.50073,80.3798561 C97.545089,84.6939611 86.5337939,86.6288532 83.298459,79.5459858 C81.9390605,76.5592547 82.7914039,72.7246809 85.6345939,70.9362192 C88.1486723,69.3534305 91.4927814,69.7558344 93.3425005,72.1518142 C94.3532637,73.4618625 94.7197491,75.1240141 94.2567615,76.7179806 C95.4700121,76.4949818 96.6598344,75.542067 97.6449381,74.3247953 C98.8609778,72.8174574 99.7635247,70.9099511 100.003944,69.4814173 C100.218145,68.2451431 100.203084,67.061405 99.9955763,65.9441753 C99.7752388,64.7744095 99.3479515,63.6728289 98.7438363,62.6629069 C97.3576627,60.351879 95.1771585,58.6310434 92.6826037,57.496488 C86.8974902,54.8652137 79.7289921,55.3201536 74.6645773,59.3151301 C72.9208433,60.6911278 71.5402478,62.3560739 70.4558528,64.2205453 C69.6291689,65.7312366 69.1806846,67.4185385 69.1221139,69.2757442 C68.8236821,68.2658222 68.4717,67.2760204 67.9027273,66.3979975 C67.5953705,65.9603832 67.2551025,65.5495959 66.883039,65.1678711 C66.3291273,64.5933278 65.7166449,64.074115 65.0366668,63.5934659 M118.342157,130.223726 C118.098949,128.419056 118.394591,126.499813 118.424156,125.84926 L118.63501,125.837524 C125.575361,125.451887 133.482408,127.971382 136.621241,134.572483 L136.395883,134.65464 C135.859822,134.8469 134.994649,134.193552 134.130033,133.541881 C133.330124,132.932687 132.52408,132.329081 132.207798,132.484453 C131.988018,132.588408 131.791667,132.690127 131.600894,132.795758 C130.698347,133.302116 129.895091,133.794502 128.927838,134.272915 L128.92226,134.272915 L128.916124,134.274592 L128.896042,134.286329 L128.88377,134.287446 L128.875403,134.290241 C125.047667,135.865764 119.015999,135.26104 118.342157,130.223726 M192.6578,130.223726 C192.898219,128.419056 192.602576,126.499813 192.576359,125.84926 L192.362157,125.837524 C185.419017,125.451887 177.520895,127.971382 174.378715,134.572483 L174.604631,134.65464 C175.140692,134.8469 176.005308,134.193552 176.869923,133.541881 C177.673179,132.932687 178.473645,132.329081 178.792716,132.484453 C179.012496,132.588408 179.208847,132.690127 179.393484,132.795758 C180.304956,133.302116 181.104865,133.794502 182.072119,134.272915 L182.078255,134.272915 L182.080486,134.274592 L182.086622,134.274592 L182.103914,134.286329 L182.113397,134.287446 L182.118975,134.290241 C185.955636,135.865764 191.986747,135.26104 192.6578,130.223726" id="Fill-1-Copy" fill="#FFFFFF"></path></g></svg>