<svg xmlns="http://www.w3.org/2000/svg" xmlns:xlink="http://www.w3.org/1999/xlink" width="311px" height="311px" viewBox="0 0 311 311"><title>emblems-zodiac-tarus</title><g id="emblems-zodiac-tarus" stroke="none" stroke-width="1" fill="none" fill-rule="evenodd"><path d="M161.0746,255.3 C167.4906,256.502 173.7686,258.437 180.4576,260.16 C176.2736,268.264 167.9476,269.583 159.4796,269.874 L158.721114,269.900023 C157.709261,269.934522 156.695569,269.96743 155.683792,269.989224 L154.925377,270.003338 C145.956442,270.14217 137.212311,269.218181 131.3176,260.575 C138.4426,258.71 144.5756,256.843 150.8316,255.574 C154.1446,254.902 157.7796,254.682 161.0746,255.3 Z M168.199,106.2512 C176.941,107.4112 185.685,108.5782 194.387,109.9972 C197.236,110.4602 199.954,111.7202 203.069,112.7252 C198.943,120.1982 197.906,127.3842 199.825,134.9972 C202.378,145.1242 208.194,149.5292 218.46,147.5672 C226.745,145.9832 234.797,143.1702 242.943,140.8672 C244.053,140.5522 245.1,139.6572 246.181,139.6482 C252.357083,139.598908 258.533753,139.586585 264.961796,139.585644 L267.947348,139.585925 C272.455187,139.587278 277.102,139.5922 281.971,139.5922 C271.184,148.6082 264.558,160.3422 252.285,165.8422 C242.507,170.2242 232.794,168.4322 222.407,164.5112 C228.773,161.3322 234.515,158.4622 240.258,155.5932 C240.196,155.4142 240.132,155.2352 240.07,155.0562 C231.847,157.3682 223.625,159.6792 215.089,162.0792 C215.305,170.1972 213.506,177.7802 208.714,184.5812 C206.952812,187.080575 205.029269,188.534487 202.0224,188.253801 L201.767,188.226 L201.711,188.272 L201.723,188.233 L201.32595,188.360483 C185.885638,193.433531 180.78497,206.47489 188.603,220.7992 C190.593,224.4452 192.377,228.2242 193.963,232.0632 C199.235,244.8222 191.13,256.5152 177.434,255.9992 C175.28,255.9182 173.06,255.8472 171.001,255.2922 C161.111,252.6202 151.309,252.4572 141.466,255.5562 C139.433,256.1962 137.201,256.3022 135.047,256.4482 C121.073,257.3942 112.556,245.8712 117.665,232.7392 C119.65,227.6372 122.397,222.8352 124.442,217.7542 C129.069,206.2582 124.094,193.1682 112.133,190.4362 C100.638263,187.810516 97.795759,180.510172 96.1444256,171.93009 L96.0226924,171.284237 C95.9428705,170.85214 95.8655602,170.417056 95.7898289,169.979408 L95.6772996,169.321068 C95.6029141,168.880964 95.5296413,168.438509 95.4565485,167.994129 L95.3469277,167.326166 C95.3286412,167.214615 95.3103368,167.102958 95.292,166.9912 C95.031,165.3932 93.882,163.0202 92.654,162.6542 C85.52,160.5282 78.239,158.8962 70.755,157.6272 C76.123,160.2002 81.49,162.7722 87.011,165.4182 C78.021,171.6962 62.185,171.4252 52.49,164.9152 C50.292,163.4382 48.244,161.6822 46.335,159.8402 C40.502,154.2152 34.771,148.4872 29,142.7982 C29.134,142.3332 29.269,141.8672 29.404,141.4012 C33.132,141.4012 36.867,141.5522 40.588,141.3742 C53.77,140.7382 66.681,141.3652 79.252,146.2882 C84.091,148.1822 89.638,148.4462 94.909,149.0152 C101.387,149.7132 105.73,146.3762 108.248,140.6352 C111.555,133.1002 111.682,125.4832 108.298,117.8972 C107.827,116.8412 107.33,115.7962 106.869,114.7372 C106.816,114.6142 106.912,114.4252 107.161,112.9652 C111.813,111.7642 116.952,110.1102 122.219,109.1552 C129.254,107.8782 136.406,107.2512 143.474,106.1392 C147.817,105.4562 149.902,108.1752 151.793,111.1852 C152.896,112.9412 153.614,114.9382 154.647,117.1222 C155.378,115.4212 155.954,113.8842 156.683,112.4222 C159.547,106.6752 161.823,105.4052 168.199,106.2512 Z M128.625,232.4822 C126.428,237.4462 127.465,242.0102 131.088,244.8072 C135.033,247.8522 139.376,247.6622 143.546,244.0872 C138.575,240.2212 133.651,236.3912 128.625,232.4822 Z M183.283,231.6462 C178.019,235.9352 173.093,239.9482 167.809,244.2532 C172.546,247.4222 176.729,247.4372 180.602,244.3422 C184.507,241.2202 185.288,237.0702 183.283,231.6462 Z M170.08,190.4532 C169.303,192.1332 168.096,193.6872 167.898,195.3592 C167.08,202.2582 166.26,209.1822 166.024,216.1182 C165.726,224.8622 166.042,225.3512 157.684,226.5822 C154.028,227.1212 149.761,225.7832 146.3,224.1652 C145.079,223.5942 145.233,219.6632 145.114,217.2492 C144.908,213.0922 145.123,208.9142 144.904,204.7582 C144.537,197.8262 142.653,193.1362 140.541,191.3482 L140.541,224.4662 C139.033,224.9792 137.24,225.5872 135.689,226.1152 C148.734,228.7482 161.865,230.3802 174.52,225.2812 C173.267,224.9232 171.712,224.4802 170.08,224.0142 L170.08,190.4532 Z M109.0647,190.2439 C124.3877,196.8749 129.2247,210.3529 120.2957,221.6249 C116.5437,211.1389 112.8297,200.7629 109.0647,190.2439 Z M201.711,188.272 L201.7278,188.2215 C200.7598,191.3275 199.8328,194.4485 198.8138,197.5365 C197.5158,201.4655 196.0608,205.3445 194.8278,209.2925 C193.6458,213.0755 192.6598,216.9195 191.5778,220.7705 C185.5038,215.9505 184.3498,205.0435 189.8828,198.5085 C193.049853,194.769237 197.284939,191.933763 201.138348,188.752182 L201.711,188.272 Z M118.835,171.4802 L117.669,173.3292 C120.505,175.1572 123.341,176.9862 126.177,178.8142 C126.331,178.4402 126.487,178.0652 126.642,177.6912 C125.318,176.5112 124.039,175.2762 122.657,174.1692 C121.444,173.1982 120.114,172.3712 118.835,171.4802 Z M192.113,171.1492 C188.312,173.5152 184.512,175.8812 181.271,177.8992 C185.683,179.0332 189.62,176.8592 192.113,171.1492 Z M119.037,140.2142 C115.222,145.1222 111.315,149.9602 107.642,154.9702 C106.296,156.8062 105.216,158.9592 104.526,161.1282 C103.091,165.6392 106.235,171.9372 110.765,173.4682 C106.075,165.2042 107.924,158.1662 113.573,151.3442 C116.191,148.1852 117.763,144.1592 119.809,140.5262 L119.037,140.2142 L119.037,140.2142 Z M190.98,140.0082 C191.939,143.2112 193.116,146.5432 195.271,149.0272 C201.365,156.0492 204.74,163.4152 199.361,173.1662 C206.531,169.1342 207.86,161.0612 203.071,154.8192 C199.193,149.7642 195.021,144.9372 190.98,140.0082 Z M164.717,166.7922 C173.195,165.4232 181.673,164.0562 190.151,162.6882 C188.463611,162.740894 186.749454,162.639783 185.028554,162.498781 L184.290671,162.436241 L184.290671,162.436241 L183.183065,162.337632 C182.936899,162.315494 182.690741,162.293372 182.44465,162.271598 L181.706636,162.207654 C175.682111,161.699404 169.732694,161.599561 164.717,166.7922 Z M128.741538,162.104748 L127.979279,162.162904 C125.182741,162.386447 122.3708,162.709829 119.612,162.6872 L145.352,166.7562 C140.327486,161.874943 134.581804,161.683001 128.741538,162.104748 Z M139.87,121.2932 C143.383,124.3382 146.95,127.4292 150.545,130.5432 C143.956,137.6032 143.403,143.1342 148.102,147.9892 C152.111,152.1302 158.717,152.2902 162.943,148.3482 C167.853,143.7672 167.41,137.6802 160.898,130.3962 C161.614437,129.791138 162.320082,129.195286 163.022349,128.60235 L164.424578,127.418501 C166.995133,125.248399 169.58675,123.061075 172.565,120.5462 C170.651,120.5462 168.741,119.9552 167.781,120.6592 C165.031,122.6702 162.551,125.0972 160.179,127.5662 C156.861,131.0212 154.303,131.0602 151.112,127.4012 C149.474,125.5232 148.027,123.4222 146.153,121.8212 C143.444,119.5052 141.484,119.6822 139.87,121.2932 Z M155.6604,132.954892 C159.9144,132.9609 163.0594,136.1839 163.0964,140.5749 C163.1334,144.9449 159.9844,148.1259 155.6514,148.0969 C151.3634,148.0659 148.0584,144.7629 148.0914,140.5389 C148.1244,136.2929 151.4614,132.9489 155.6604,132.954892 Z M52.2887,43.7807 C52.7247,43.9457 53.1617,44.1107 53.5987,44.2747 C53.3047,49.4377 52.8447,54.5977 52.7637,59.7627 C52.6747,65.4107 52.6267,71.0917 53.1117,76.7107 C54.0497,87.5967 59.7737,96.1127 68.7517,101.6057 C77.0397,106.6757 86.1197,110.6057 95.1757,114.2227 C104.0437,117.7647 107.2097,122.4677 105.4807,133.1707 C78.9767,130.6337 54.8597,124.9507 45.1867,94.7247 C44.6217,116.1577 65.8967,131.9197 104.1267,139.3447 C102.7977,143.5637 100.5567,146.4607 95.7107,146.1567 C77.9037,145.0437 61.6267,140.0417 49.0527,126.6277 C41.8017,118.8927 38.9537,109.0237 38.1557,98.7727 C36.8257,81.6807 40.0367,65.3137 47.8837,49.9887 C49.0287,47.7537 50.8047,45.8427 52.2887,43.7807 Z M254.2019,41 C256.2859,43.035 257.7159,43.919 258.4259,45.201 C270.2559,66.568 275.2379,89.005 267.1269,112.787 C262.3219,126.877 251.0909,135.055 237.5939,139.805 C230.2989,142.373 222.5029,143.7 214.8279,144.938 C209.7779,145.753 207.7649,143.807 205.8459,138.159 C233.2529,133.918 257.2839,125.118 263.9659,93.884 C259.2509,105.823 252.7069,116.377 240.7629,122.584 C229.3469,128.516 217.0439,130.9 204.4659,132.069 C201.6169,123.665 205.3329,116.818 212.7819,113.583 C222.4819,109.369 232.2529,104.95 241.1009,99.236 C250.8669,92.93 255.7309,82.956 255.6709,71.161 C255.6289,62.856 254.9309,54.555 254.5209,46.251 C254.4589,45.003 254.3699,43.756 254.2019,41 Z" id="Combined-Shape" fill="#FFFFFF"></path></g></svg>