<svg xmlns="http://www.w3.org/2000/svg" xmlns:xlink="http://www.w3.org/1999/xlink" width="311px" height="311px" viewBox="0 0 311 311"><title>emblem-upload-logo</title><g id="emblem-upload-logo" stroke="none" stroke-width="1" fill="none" fill-rule="evenodd"><g id="noun_Upload_1016093" transform="translate(71.000000, 51.000000)" fill="#FFFFFF" fill-rule="nonzero"><path d="M85.2389963,0.0394999548 C38.6693983,0.0394999548 0.623699973,37.8772983 0.623699973,84.6547963 C0.623699973,121.660995 24.3242989,153.053893 57.3803975,164.488393 L57.3803975,137.253494 C38.4614983,127.274294 25.5716989,107.315895 25.5716989,84.4468963 C25.5716989,51.5986977 52.3907977,24.7795989 85.2389963,24.7795989 C118.087195,24.7795989 144.906294,51.5986977 144.906294,84.4468963 C144.906294,107.523795 131.808594,127.690094 112.473895,137.461394 L112.473895,164.488393 C145.737894,153.053893 169.854293,121.453095 169.854293,84.4468963 C169.854293,37.8772983 131.808594,0.0394999548 85.2389963,0.0394999548 Z" id="Path"></path><path d="M123.076795,95.2576958 C127.858494,90.475996 127.858494,82.5757964 123.076795,77.5861966 L94.1786959,48.6880978 C91.683896,46.1932979 88.5653961,44.945898 85.4468963,44.945898 C82.3283964,44.945898 79.0019966,46.1932979 76.7150967,48.6880978 L47.8169979,77.5861966 C43.0352981,82.3678964 43.0352981,90.268096 47.8169979,95.2576958 C52.5986977,100.039396 60.4988974,100.039396 65.4884971,95.2576958 L72.9728968,87.7732961 L72.9728968,185.070492 C72.9728968,191.931192 78.5861966,197.544491 85.4468963,197.544491 C92.307596,197.544491 97.9208957,191.931192 97.9208957,185.070492 L97.9208957,87.3574962 L105.821095,95.2576958 C110.186995,100.039396 118.087195,100.039396 123.076795,95.2576958 Z" id="Path"></path></g></g></svg>